<?xml version="1.0" standalone="no"?>
<!DOCTYPE svg PUBLIC "-//W3C//DTD SVG 20010904//EN"
 "http://www.w3.org/TR/2001/REC-SVG-20010904/DTD/svg10.dtd">
<svg version="1.0" xmlns="http://www.w3.org/2000/svg"
 width="130.000000pt" height="130.000000pt" viewBox="0 0 130.000000 130.000000"
 preserveAspectRatio="xMidYMid meet">
<metadata>
Created by potrace 1.14, written by Peter Selinger 2001-2017
</metadata>
<g transform="translate(0.000000,130.000000) scale(0.100000,-0.100000)"
fill="#000000" stroke="none">
<path d="M0 740 c0 -345 1 -370 18 -371 9 0 201 -1 425 -1 373 -1 409 -2 420
-18 7 -9 38 -45 70 -80 31 -35 57 -66 57 -69 0 -4 16 -8 35 -9 39 -3 37 -9 37
110 l0 67 87 0 c47 -1 101 0 119 0 l32 1 0 370 0 370 -650 0 -650 0 0 -370z"/>
</g>
</svg>
